<?xml version="1.0" encoding="UTF-8" standalone="no"?>
<!DOCTYPE svg PUBLIC "-//W3C//DTD SVG 1.1//EN" "http://www.w3.org/Graphics/SVG/1.1/DTD/svg11.dtd">
<svg width="100%" height="100%" viewBox="0 0 512 512" version="1.1" xmlns="http://www.w3.org/2000/svg" xmlns:xlink="http://www.w3.org/1999/xlink" xml:space="preserve" xmlns:serif="http://www.serif.com/" style="fill-rule:evenodd;clip-rule:evenodd;stroke-linejoin:round;stroke-miterlimit:2;">
    <g id="Background" transform="matrix(1,0,0,1,22,27)">
        <path d="M145.5,68.034C219.292,79.043 331.52,216.075 332.032,359.496C332.07,369.905 324.393,400.598 315.259,407.22C261.104,446.475 176.135,344.249 146.331,290.603C108.999,223.404 105.098,183.583 102.315,174.574C99.723,166.18 88.417,85.375 124.577,70.682C134.527,66.639 134.758,68.068 145.5,68.034L166.966,198.5C172.195,277.98 245.412,336.639 258.668,313.603C288.772,261.288 182.96,124.771 168.004,185.45C168.004,185.45 167.049,197.456 166.966,198.5L145.5,68.034Z" style="fill:rgb(167,0,0);"/>
        <path d="M291.5,429.034C324.565,425.056 331.695,412.883 341.684,380.574C345.365,368.67 356.474,289.74 289.668,178.398C271.465,148.058 256.509,136.633 269.426,131.319C272.95,129.869 278.405,127.231 308.332,179.602C366.315,281.074 384.639,402.105 317.603,439.669C226.556,490.686 152.009,408.363 149.56,408.08C134.216,406.303 98.958,434.299 65.219,395.741C25.786,350.674 15.423,319.74 3.315,280.574C2.673,278.497 -2.954,251.069 13.78,232.74C19.247,226.753 40.891,206.547 40.68,205.454C16.947,82.106 108.901,27.268 160.45,41.996C166.945,43.851 202.554,54.025 233.261,84.738C236.026,87.504 237.161,108.07 215.74,90.22C112.184,3.923 67.714,88.938 91.996,187.45C96.715,206.594 125.332,322.693 219.741,398.219C227.113,404.117 240.537,412.506 242.398,413.668C262.659,426.329 287.402,428.65 291.5,429.034L257.51,440.995C257.935,441.015 271.585,441.651 262.572,439.384C236.221,432.753 190.795,401.507 154.219,352.741C59.831,226.891 70.269,125.777 71.079,114.444C72.129,99.74 80.003,82.897 72.856,95.689C58.661,121.094 22.966,175.133 98.669,311.397C169.426,438.761 232.752,439.097 257.51,440.995L291.5,429.034Z" style="fill:rgb(167,0,0);"/>
        <path d="M425.966,284.5C425.911,285.68 425.26,299.583 414.397,293.668C405.533,288.841 419.435,282.371 388.317,204.577C348.458,104.928 285.761,51.538 285.319,50.574C282.802,45.099 289.961,34.465 301.26,44.78C346.767,86.33 414.011,185.026 425.966,284.5Z" style="fill:rgb(167,0,0);"/>
        <path d="M431.5,206.966C418.522,205.633 417.692,158.807 349.78,68.26C312.723,18.851 291.133,13.572 299.783,4.74C309.727,-5.413 327.661,19.111 334.262,25.738C361.234,52.82 402.721,110.519 432.318,179.577C439.041,195.265 446.283,205.935 431.5,206.966Z" style="fill:rgb(167,0,0);"/>
        <path d="M387.966,276.5C387.935,277.276 391.266,288.675 378.543,288.002C367.428,287.414 381.777,256.393 330.668,164.398C304.995,118.185 280.326,97.829 274.74,93.22C264.013,84.368 273.831,70.52 287.26,82.78C316.115,109.127 375.763,187.591 387.966,276.5Z" style="fill:rgb(167,0,0);"/>
        <path d="M188.034,227.5C190.719,188.607 243.019,245.306 231.683,273.577C226.481,286.549 191.191,275.695 188.034,227.5Z" style="fill:rgb(235,235,235);"/>
        <path d="M465.966,297.5C465.104,309.858 452.172,311.299 450.079,294.556C445.968,261.671 441.432,254.309 454.457,254.998C462.51,255.424 464.953,290.12 465.966,297.5Z" style="fill:rgb(167,0,0);"/>
        <path d="M241.034,109.5C242.807,92.243 261.88,109.898 263.001,116.542C265.44,130.987 242.323,126.123 241.034,109.5Z" style="fill:rgb(167,0,0);"/>
        <path d="M436.034,230.5C436.319,227.426 436.224,227.654 436.319,227.426C443.018,211.179 461.251,238.668 449.397,244.294C439.125,249.169 436.285,232.016 436.034,230.5Z" style="fill:rgb(167,0,0);"/>
    </g>
</svg>
